<svg xmlns="http://www.w3.org/2000/svg" xmlns:xlink="http://www.w3.org/1999/xlink" width="500" zoomAndPan="magnify" viewBox="0 0 375 374.999991" height="500" preserveAspectRatio="xMidYMid meet" version="1.0"><defs><g/><clipPath id="2b54a1135c"><path d="M 14.652344 161.019531 L 195.796875 161.019531 L 195.796875 211.480469 L 14.652344 211.480469 Z M 14.652344 161.019531 " clip-rule="nonzero"/></clipPath><clipPath id="5f53872738"><path d="M 31.902344 161.019531 L 178.546875 161.019531 C 183.121094 161.019531 187.511719 162.839844 190.746094 166.074219 C 193.980469 169.308594 195.796875 173.695312 195.796875 178.269531 L 195.796875 194.230469 C 195.796875 198.804688 193.980469 203.195312 190.746094 206.429688 C 187.511719 209.664062 183.121094 211.480469 178.546875 211.480469 L 31.902344 211.480469 C 27.328125 211.480469 22.941406 209.664062 19.707031 206.429688 C 16.472656 203.195312 14.652344 198.804688 14.652344 194.230469 L 14.652344 178.269531 C 14.652344 173.695312 16.472656 169.308594 19.707031 166.074219 C 22.941406 162.839844 27.328125 161.019531 31.902344 161.019531 Z M 31.902344 161.019531 " clip-rule="nonzero"/></clipPath><linearGradient x1="0.00579638" gradientTransform="matrix(0.197111, 0, 0, 0.197111, 14.65225, 161.020996)" y1="128" x2="918.995931" gradientUnits="userSpaceOnUse" y2="128" id="8d9395b713"><stop stop-opacity="1" stop-color="rgb(100%, 41.999817%, 41.998291%)" offset="0"/><stop stop-opacity="1" stop-color="rgb(100%, 42.147827%, 41.833496%)" offset="0.0078125"/><stop stop-opacity="1" stop-color="rgb(100%, 42.443848%, 41.505432%)" offset="0.015625"/><stop stop-opacity="1" stop-color="rgb(100%, 42.741394%, 41.177368%)" offset="0.0234375"/><stop stop-opacity="1" stop-color="rgb(100%, 43.037415%, 40.849304%)" offset="0.03125"/><stop stop-opacity="1" stop-color="rgb(100%, 43.334961%, 40.52124%)" offset="0.0390625"/><stop stop-opacity="1" stop-color="rgb(100%, 43.632507%, 40.193176%)" offset="0.046875"/><stop stop-opacity="1" stop-color="rgb(100%, 43.928528%, 39.865112%)" offset="0.0546875"/><stop stop-opacity="1" stop-color="rgb(100%, 44.226074%, 39.537048%)" offset="0.0625"/><stop stop-opacity="1" stop-color="rgb(100%, 44.522095%, 39.208984%)" offset="0.0703125"/><stop stop-opacity="1" stop-color="rgb(100%, 44.819641%, 38.88092%)" offset="0.078125"/><stop stop-opacity="1" stop-color="rgb(100%, 45.115662%, 38.552856%)" offset="0.0859375"/><stop stop-opacity="1" stop-color="rgb(100%, 45.413208%, 38.224792%)" offset="0.09375"/><stop stop-opacity="1" stop-color="rgb(100%, 45.709229%, 37.896729%)" offset="0.101562"/><stop stop-opacity="1" stop-color="rgb(100%, 46.006775%, 37.568665%)" offset="0.109375"/><stop stop-opacity="1" stop-color="rgb(100%, 46.304321%, 37.240601%)" offset="0.117188"/><stop stop-opacity="1" stop-color="rgb(100%, 46.600342%, 36.912537%)" offset="0.125"/><stop stop-opacity="1" stop-color="rgb(100%, 46.897888%, 36.584473%)" offset="0.132812"/><stop stop-opacity="1" stop-color="rgb(100%, 47.193909%, 36.256409%)" offset="0.140625"/><stop stop-opacity="1" stop-color="rgb(100%, 47.491455%, 35.928345%)" offset="0.148437"/><stop stop-opacity="1" stop-color="rgb(100%, 47.787476%, 35.600281%)" offset="0.15625"/><stop stop-opacity="1" stop-color="rgb(100%, 48.085022%, 35.272217%)" offset="0.164062"/><stop stop-opacity="1" stop-color="rgb(100%, 48.382568%, 34.944153%)" offset="0.171875"/><stop stop-opacity="1" stop-color="rgb(100%, 48.678589%, 34.616089%)" offset="0.179687"/><stop stop-opacity="1" stop-color="rgb(100%, 48.976135%, 34.288025%)" offset="0.1875"/><stop stop-opacity="1" stop-color="rgb(100%, 49.272156%, 33.959961%)" offset="0.195312"/><stop stop-opacity="1" stop-color="rgb(100%, 49.569702%, 33.630371%)" offset="0.203125"/><stop stop-opacity="1" stop-color="rgb(100%, 49.865723%, 33.302307%)" offset="0.210937"/><stop stop-opacity="1" stop-color="rgb(100%, 50.163269%, 32.974243%)" offset="0.21875"/><stop stop-opacity="1" stop-color="rgb(100%, 50.45929%, 32.646179%)" offset="0.226562"/><stop stop-opacity="1" stop-color="rgb(100%, 50.756836%, 32.318115%)" offset="0.234375"/><stop stop-opacity="1" stop-color="rgb(100%, 51.054382%, 31.990051%)" offset="0.242187"/><stop stop-opacity="1" stop-color="rgb(100%, 51.350403%, 31.661987%)" offset="0.25"/><stop stop-opacity="1" stop-color="rgb(100%, 51.647949%, 31.333923%)" offset="0.257812"/><stop stop-opacity="1" stop-color="rgb(100%, 51.94397%, 31.005859%)" offset="0.265625"/><stop stop-opacity="1" stop-color="rgb(100%, 52.241516%, 30.677795%)" offset="0.273438"/><stop stop-opacity="1" stop-color="rgb(100%, 52.537537%, 30.349731%)" offset="0.28125"/><stop stop-opacity="1" stop-color="rgb(100%, 52.835083%, 30.021667%)" offset="0.289062"/><stop stop-opacity="1" stop-color="rgb(100%, 53.131104%, 29.693604%)" offset="0.296875"/><stop stop-opacity="1" stop-color="rgb(100%, 53.42865%, 29.36554%)" offset="0.304688"/><stop stop-opacity="1" stop-color="rgb(100%, 53.726196%, 29.037476%)" offset="0.3125"/><stop stop-opacity="1" stop-color="rgb(100%, 54.022217%, 28.709412%)" offset="0.320312"/><stop stop-opacity="1" stop-color="rgb(100%, 54.319763%, 28.381348%)" offset="0.328125"/><stop stop-opacity="1" stop-color="rgb(100%, 54.615784%, 28.053284%)" offset="0.335938"/><stop stop-opacity="1" stop-color="rgb(100%, 54.91333%, 27.72522%)" offset="0.34375"/><stop stop-opacity="1" stop-color="rgb(100%, 55.209351%, 27.397156%)" offset="0.351562"/><stop stop-opacity="1" stop-color="rgb(100%, 55.506897%, 27.069092%)" offset="0.359375"/><stop stop-opacity="1" stop-color="rgb(100%, 55.802917%, 26.741028%)" offset="0.367188"/><stop stop-opacity="1" stop-color="rgb(100%, 56.100464%, 26.412964%)" offset="0.375"/><stop stop-opacity="1" stop-color="rgb(100%, 56.39801%, 26.0849%)" offset="0.382812"/><stop stop-opacity="1" stop-color="rgb(100%, 56.694031%, 25.756836%)" offset="0.390625"/><stop stop-opacity="1" stop-color="rgb(100%, 56.991577%, 25.428772%)" offset="0.398438"/><stop stop-opacity="1" stop-color="rgb(100%, 57.287598%, 25.099182%)" offset="0.40625"/><stop stop-opacity="1" stop-color="rgb(100%, 57.585144%, 24.771118%)" offset="0.414062"/><stop stop-opacity="1" stop-color="rgb(100%, 57.881165%, 24.443054%)" offset="0.421875"/><stop stop-opacity="1" stop-color="rgb(100%, 58.178711%, 24.11499%)" offset="0.429688"/><stop stop-opacity="1" stop-color="rgb(100%, 58.476257%, 23.786926%)" offset="0.4375"/><stop stop-opacity="1" stop-color="rgb(100%, 58.772278%, 23.458862%)" offset="0.445312"/><stop stop-opacity="1" stop-color="rgb(100%, 59.069824%, 23.130798%)" offset="0.453125"/><stop stop-opacity="1" stop-color="rgb(100%, 59.365845%, 22.802734%)" offset="0.460938"/><stop stop-opacity="1" stop-color="rgb(100%, 59.663391%, 22.47467%)" offset="0.46875"/><stop stop-opacity="1" stop-color="rgb(100%, 59.959412%, 22.146606%)" offset="0.476562"/><stop stop-opacity="1" stop-color="rgb(100%, 60.256958%, 21.818542%)" offset="0.484375"/><stop stop-opacity="1" stop-color="rgb(100%, 60.552979%, 21.490479%)" offset="0.492188"/><stop stop-opacity="1" stop-color="rgb(100%, 60.850525%, 21.162415%)" offset="0.5"/><stop stop-opacity="1" stop-color="rgb(100%, 61.148071%, 20.834351%)" offset="0.507812"/><stop stop-opacity="1" stop-color="rgb(100%, 61.444092%, 20.506287%)" offset="0.515625"/><stop stop-opacity="1" stop-color="rgb(100%, 61.741638%, 20.178223%)" offset="0.523438"/><stop stop-opacity="1" stop-color="rgb(100%, 62.037659%, 19.850159%)" offset="0.53125"/><stop stop-opacity="1" stop-color="rgb(100%, 62.335205%, 19.522095%)" offset="0.539062"/><stop stop-opacity="1" stop-color="rgb(100%, 62.631226%, 19.194031%)" offset="0.546875"/><stop stop-opacity="1" stop-color="rgb(100%, 62.928772%, 18.865967%)" offset="0.554688"/><stop stop-opacity="1" stop-color="rgb(100%, 63.224792%, 18.537903%)" offset="0.5625"/><stop stop-opacity="1" stop-color="rgb(100%, 63.522339%, 18.209839%)" offset="0.570312"/><stop stop-opacity="1" stop-color="rgb(100%, 63.819885%, 17.881775%)" offset="0.578125"/><stop stop-opacity="1" stop-color="rgb(100%, 64.115906%, 17.553711%)" offset="0.585938"/><stop stop-opacity="1" stop-color="rgb(100%, 64.413452%, 17.225647%)" offset="0.59375"/><stop stop-opacity="1" stop-color="rgb(100%, 64.709473%, 16.897583%)" offset="0.601562"/><stop stop-opacity="1" stop-color="rgb(100%, 65.007019%, 16.567993%)" offset="0.609375"/><stop stop-opacity="1" stop-color="rgb(100%, 65.30304%, 16.239929%)" offset="0.617188"/><stop stop-opacity="1" stop-color="rgb(100%, 65.600586%, 15.911865%)" offset="0.625"/><stop stop-opacity="1" stop-color="rgb(100%, 65.896606%, 15.583801%)" offset="0.632812"/><stop stop-opacity="1" stop-color="rgb(100%, 66.194153%, 15.255737%)" offset="0.640625"/><stop stop-opacity="1" stop-color="rgb(100%, 66.491699%, 14.927673%)" offset="0.648438"/><stop stop-opacity="1" stop-color="rgb(100%, 66.78772%, 14.599609%)" offset="0.65625"/><stop stop-opacity="1" stop-color="rgb(100%, 67.085266%, 14.271545%)" offset="0.664062"/><stop stop-opacity="1" stop-color="rgb(100%, 67.381287%, 13.943481%)" offset="0.671875"/><stop stop-opacity="1" stop-color="rgb(100%, 67.678833%, 13.615417%)" offset="0.679688"/><stop stop-opacity="1" stop-color="rgb(100%, 67.974854%, 13.287354%)" offset="0.6875"/><stop stop-opacity="1" stop-color="rgb(100%, 68.2724%, 12.95929%)" offset="0.695312"/><stop stop-opacity="1" stop-color="rgb(100%, 68.569946%, 12.631226%)" offset="0.703125"/><stop stop-opacity="1" stop-color="rgb(100%, 68.865967%, 12.303162%)" offset="0.710938"/><stop stop-opacity="1" stop-color="rgb(100%, 69.163513%, 11.975098%)" offset="0.71875"/><stop stop-opacity="1" stop-color="rgb(100%, 69.459534%, 11.647034%)" offset="0.726562"/><stop stop-opacity="1" stop-color="rgb(100%, 69.75708%, 11.31897%)" offset="0.734375"/><stop stop-opacity="1" stop-color="rgb(100%, 70.053101%, 10.990906%)" offset="0.742188"/><stop stop-opacity="1" stop-color="rgb(100%, 70.350647%, 10.662842%)" offset="0.75"/><stop stop-opacity="1" stop-color="rgb(100%, 70.646667%, 10.334778%)" offset="0.757812"/><stop stop-opacity="1" stop-color="rgb(100%, 70.944214%, 10.006714%)" offset="0.765625"/><stop stop-opacity="1" stop-color="rgb(100%, 71.24176%, 9.67865%)" offset="0.773438"/><stop stop-opacity="1" stop-color="rgb(100%, 71.537781%, 9.350586%)" offset="0.78125"/><stop stop-opacity="1" stop-color="rgb(100%, 71.835327%, 9.022522%)" offset="0.789062"/><stop stop-opacity="1" stop-color="rgb(100%, 72.131348%, 8.694458%)" offset="0.796875"/><stop stop-opacity="1" stop-color="rgb(100%, 72.428894%, 8.366394%)" offset="0.804688"/><stop stop-opacity="1" stop-color="rgb(100%, 72.724915%, 8.036804%)" offset="0.8125"/><stop stop-opacity="1" stop-color="rgb(100%, 73.022461%, 7.70874%)" offset="0.820312"/><stop stop-opacity="1" stop-color="rgb(100%, 73.318481%, 7.380676%)" offset="0.828125"/><stop stop-opacity="1" stop-color="rgb(100%, 73.616028%, 7.052612%)" offset="0.835938"/><stop stop-opacity="1" stop-color="rgb(100%, 73.913574%, 6.724548%)" offset="0.84375"/><stop stop-opacity="1" stop-color="rgb(100%, 74.209595%, 6.396484%)" offset="0.851562"/><stop stop-opacity="1" stop-color="rgb(100%, 74.507141%, 6.06842%)" offset="0.859375"/><stop stop-opacity="1" stop-color="rgb(100%, 74.803162%, 5.740356%)" offset="0.867188"/><stop stop-opacity="1" stop-color="rgb(100%, 75.100708%, 5.412292%)" offset="0.875"/><stop stop-opacity="1" stop-color="rgb(100%, 75.396729%, 5.084229%)" offset="0.882812"/><stop stop-opacity="1" stop-color="rgb(100%, 75.694275%, 4.756165%)" offset="0.890625"/><stop stop-opacity="1" stop-color="rgb(100%, 75.990295%, 4.428101%)" offset="0.898438"/><stop stop-opacity="1" stop-color="rgb(100%, 76.287842%, 4.100037%)" offset="0.90625"/><stop stop-opacity="1" stop-color="rgb(100%, 76.585388%, 3.771973%)" offset="0.914062"/><stop stop-opacity="1" stop-color="rgb(100%, 76.881409%, 3.443909%)" offset="0.921875"/><stop stop-opacity="1" stop-color="rgb(100%, 77.178955%, 3.115845%)" offset="0.929688"/><stop stop-opacity="1" stop-color="rgb(100%, 77.474976%, 2.787781%)" offset="0.9375"/><stop stop-opacity="1" stop-color="rgb(100%, 77.772522%, 2.459717%)" offset="0.945312"/><stop stop-opacity="1" stop-color="rgb(100%, 78.068542%, 2.131653%)" offset="0.953125"/><stop stop-opacity="1" stop-color="rgb(100%, 78.366089%, 1.803589%)" offset="0.960938"/><stop stop-opacity="1" stop-color="rgb(100%, 78.663635%, 1.475525%)" offset="0.96875"/><stop stop-opacity="1" stop-color="rgb(100%, 78.959656%, 1.147461%)" offset="0.976562"/><stop stop-opacity="1" stop-color="rgb(100%, 79.257202%, 0.819397%)" offset="0.984375"/><stop stop-opacity="1" stop-color="rgb(100%, 79.553223%, 0.491333%)" offset="0.992188"/><stop stop-opacity="1" stop-color="rgb(100%, 79.850769%, 0.163269%)" offset="1"/></linearGradient><clipPath id="4153eebca4"><path d="M 150 195 L 155.867188 195 L 155.867188 200.570312 L 150 200.570312 Z M 150 195 " clip-rule="nonzero"/></clipPath><clipPath id="80ccf624e1"><path d="M 127.367188 174.320312 L 154 174.320312 L 154 200.570312 L 127.367188 200.570312 Z M 127.367188 174.320312 " clip-rule="nonzero"/></clipPath></defs><g clip-path="url(#2b54a1135c)"><g clip-path="url(#5f53872738)"><path fill="url(#8d9395b713)" d="M 14.652344 161.019531 L 14.652344 211.480469 L 195.796875 211.480469 L 195.796875 161.019531 Z M 14.652344 161.019531 " fill-rule="nonzero"/></g></g><g clip-path="url(#4153eebca4)"><path fill="#ff3131" d="M 151.335938 195.105469 C 151.335938 195.105469 152.230469 197.230469 153.757812 197.164062 C 155.28125 197.097656 155.871094 196.550781 155.871094 196.550781 L 155.40625 200.082031 C 155.40625 200.082031 150.867188 200.207031 150.558594 196.101562 C 150.5 195.320312 151.335938 195.105469 151.335938 195.105469 Z M 151.335938 195.105469 " fill-opacity="1" fill-rule="nonzero"/></g><path fill="#ff3131" d="M 149.632812 187.496094 C 149.632812 188.089844 149.574219 188.679688 149.457031 189.261719 C 149.339844 189.84375 149.171875 190.410156 148.941406 190.960938 C 148.714844 191.511719 148.4375 192.03125 148.105469 192.527344 C 147.777344 193.019531 147.398438 193.476562 146.980469 193.898438 C 146.558594 194.320312 146.101562 194.695312 145.609375 195.023438 C 145.113281 195.355469 144.59375 195.632812 144.042969 195.859375 C 143.492188 196.089844 142.925781 196.261719 142.34375 196.375 C 141.761719 196.492188 141.171875 196.550781 140.578125 196.550781 C 139.984375 196.550781 139.394531 196.492188 138.8125 196.375 C 138.230469 196.261719 137.664062 196.089844 137.113281 195.859375 C 136.5625 195.632812 136.042969 195.355469 135.546875 195.023438 C 135.054688 194.695312 134.597656 194.320312 134.175781 193.898438 C 133.757812 193.476562 133.378906 193.019531 133.050781 192.527344 C 132.71875 192.03125 132.441406 191.511719 132.214844 190.960938 C 131.984375 190.410156 131.816406 189.84375 131.699219 189.261719 C 131.582031 188.679688 131.523438 188.089844 131.523438 187.496094 C 131.523438 186.902344 131.582031 186.3125 131.699219 185.730469 C 131.816406 185.148438 131.984375 184.582031 132.214844 184.03125 C 132.441406 183.484375 132.71875 182.960938 133.050781 182.464844 C 133.378906 181.972656 133.757812 181.515625 134.175781 181.09375 C 134.597656 180.675781 135.054688 180.296875 135.546875 179.96875 C 136.042969 179.636719 136.5625 179.359375 137.113281 179.132812 C 137.664062 178.90625 138.230469 178.734375 138.8125 178.617188 C 139.394531 178.5 139.984375 178.441406 140.578125 178.441406 C 141.171875 178.441406 141.761719 178.5 142.34375 178.617188 C 142.925781 178.734375 143.492188 178.90625 144.042969 179.132812 C 144.59375 179.359375 145.113281 179.636719 145.609375 179.96875 C 146.101562 180.296875 146.558594 180.675781 146.980469 181.09375 C 147.398438 181.515625 147.777344 181.972656 148.105469 182.464844 C 148.4375 182.960938 148.714844 183.484375 148.941406 184.03125 C 149.171875 184.582031 149.339844 185.148438 149.457031 185.730469 C 149.574219 186.3125 149.632812 186.902344 149.632812 187.496094 Z M 149.632812 187.496094 " fill-opacity="1" fill-rule="nonzero"/><g clip-path="url(#80ccf624e1)"><path fill="#000000" d="M 140.578125 174.320312 C 133.300781 174.320312 127.402344 180.21875 127.402344 187.496094 C 127.402344 194.773438 133.300781 200.675781 140.578125 200.675781 C 147.855469 200.675781 153.757812 194.773438 153.757812 187.496094 C 153.757812 180.21875 147.855469 174.320312 140.578125 174.320312 Z M 140.578125 176.660156 C 142.574219 176.660156 144.183594 178.277344 144.183594 180.265625 C 144.183594 182.257812 142.566406 183.871094 140.578125 183.871094 C 138.589844 183.871094 136.972656 182.257812 136.972656 180.265625 C 136.972656 178.277344 138.582031 176.660156 140.578125 176.660156 Z M 142.929688 187.078125 C 142.929688 187.324219 142.734375 187.519531 142.488281 187.519531 C 142.242188 187.519531 142.042969 187.324219 142.042969 187.078125 C 142.042969 186.828125 142.242188 186.632812 142.488281 186.632812 C 142.734375 186.632812 142.929688 186.828125 142.929688 187.078125 Z M 141.019531 185.160156 C 141.019531 185.410156 140.824219 185.605469 140.578125 185.605469 C 140.332031 185.605469 140.136719 185.410156 140.136719 185.160156 C 140.136719 184.914062 140.332031 184.71875 140.578125 184.71875 C 140.820312 184.71875 141.019531 184.917969 141.019531 185.160156 Z M 139.105469 187.078125 C 139.105469 187.324219 138.910156 187.519531 138.664062 187.519531 C 138.414062 187.519531 138.21875 187.324219 138.21875 187.078125 C 138.21875 186.828125 138.414062 186.632812 138.664062 186.632812 C 138.910156 186.632812 139.105469 186.828125 139.105469 187.078125 Z M 130.121094 185.464844 C 130.121094 183.476562 131.738281 181.859375 133.726562 181.859375 C 135.71875 181.859375 137.335938 183.476562 137.335938 185.464844 C 137.335938 187.457031 135.71875 189.074219 133.726562 189.074219 C 131.738281 189.074219 130.121094 187.460938 130.121094 185.464844 Z M 136.242188 196.902344 C 134.25 196.902344 132.632812 195.285156 132.632812 193.292969 C 132.632812 191.304688 134.25 189.6875 136.242188 189.6875 C 138.238281 189.6875 139.847656 191.304688 139.847656 193.292969 C 139.847656 195.285156 138.230469 196.902344 136.242188 196.902344 Z M 139.570312 187.078125 C 139.570312 186.519531 140.019531 186.070312 140.578125 186.070312 C 141.136719 186.070312 141.585938 186.519531 141.585938 187.078125 C 141.585938 187.632812 141.136719 188.082031 140.578125 188.082031 C 140.019531 188.082031 139.570312 187.628906 139.570312 187.078125 Z M 140.578125 189.429688 C 140.332031 189.429688 140.136719 189.234375 140.136719 188.984375 C 140.136719 188.738281 140.332031 188.542969 140.578125 188.542969 C 140.824219 188.542969 141.019531 188.738281 141.019531 188.984375 C 141.019531 189.234375 140.820312 189.429688 140.578125 189.429688 Z M 144.847656 196.902344 C 142.855469 196.902344 141.238281 195.285156 141.238281 193.292969 C 141.238281 191.304688 142.855469 189.6875 144.847656 189.6875 C 146.84375 189.6875 148.453125 191.304688 148.453125 193.292969 C 148.457031 195.285156 146.84375 196.902344 144.847656 196.902344 Z M 147.421875 189.078125 C 145.433594 189.078125 143.816406 187.460938 143.816406 185.472656 C 143.816406 183.480469 145.433594 181.859375 147.421875 181.859375 C 149.417969 181.859375 151.03125 183.476562 151.03125 185.464844 C 151.03125 187.457031 149.417969 189.078125 147.421875 189.078125 Z M 147.421875 189.078125 " fill-opacity="1" fill-rule="nonzero"/></g><path fill="#000000" d="M 140.664062 199.628906 C 133.976562 199.628906 128.527344 194.1875 128.527344 187.492188 C 128.527344 180.800781 133.96875 175.355469 140.664062 175.355469 C 147.355469 175.355469 152.800781 180.796875 152.800781 187.492188 C 152.796875 194.1875 147.355469 199.628906 140.664062 199.628906 Z M 140.664062 175.933594 C 134.292969 175.933594 129.101562 181.125 129.101562 187.496094 C 129.101562 193.871094 134.292969 199.058594 140.664062 199.058594 C 147.039062 199.058594 152.226562 193.871094 152.226562 187.496094 C 152.21875 181.125 147.039062 175.933594 140.664062 175.933594 Z M 140.664062 175.933594 " fill-opacity="1" fill-rule="nonzero"/><g fill="#000000" fill-opacity="1"><g transform="translate(18.682716, 199.124987)"><g><path d="M 12.765625 -6.3125 L 9.109375 -6.3125 L 9.109375 0 L 2.375 0 L 2.375 -23.78125 L 13.25 -23.78125 C 15.394531 -23.78125 17.257812 -23.421875 18.84375 -22.703125 C 20.4375 -21.992188 21.660156 -20.972656 22.515625 -19.640625 C 23.378906 -18.316406 23.8125 -16.765625 23.8125 -14.984375 C 23.8125 -13.265625 23.410156 -11.765625 22.609375 -10.484375 C 21.804688 -9.203125 20.65625 -8.195312 19.15625 -7.46875 L 24.28125 0 L 17.09375 0 Z M 17.015625 -14.984375 C 17.015625 -16.085938 16.660156 -16.945312 15.953125 -17.5625 C 15.253906 -18.175781 14.21875 -18.484375 12.84375 -18.484375 L 9.109375 -18.484375 L 9.109375 -11.515625 L 12.84375 -11.515625 C 14.21875 -11.515625 15.253906 -11.8125 15.953125 -12.40625 C 16.660156 -13.007812 17.015625 -13.867188 17.015625 -14.984375 Z M 17.015625 -14.984375 "/></g></g></g><g fill="#000000" fill-opacity="1"><g transform="translate(43.8225, 199.124987)"><g><path d="M 18.3125 -4.625 L 8.25 -4.625 L 6.390625 0 L -0.46875 0 L 10.015625 -23.78125 L 16.640625 -23.78125 L 27.171875 0 L 20.171875 0 Z M 16.34375 -9.578125 L 13.28125 -17.1875 L 10.21875 -9.578125 Z M 16.34375 -9.578125 "/></g></g></g><g fill="#000000" fill-opacity="1"><g transform="translate(70.52502, 199.124987)"><g><path d="M 25 -23.78125 L 25 0 L 19.46875 0 L 8.96875 -12.671875 L 8.96875 0 L 2.375 0 L 2.375 -23.78125 L 7.921875 -23.78125 L 18.40625 -11.109375 L 18.40625 -23.78125 Z M 25 -23.78125 "/></g></g></g><g fill="#000000" fill-opacity="1"><g transform="translate(97.906999, 199.124987)"><g><path d="M 2.375 -23.78125 L 13.625 -23.78125 C 16.226562 -23.78125 18.535156 -23.289062 20.546875 -22.3125 C 22.566406 -21.34375 24.128906 -19.960938 25.234375 -18.171875 C 26.347656 -16.378906 26.90625 -14.285156 26.90625 -11.890625 C 26.90625 -9.484375 26.347656 -7.382812 25.234375 -5.59375 C 24.128906 -3.8125 22.566406 -2.429688 20.546875 -1.453125 C 18.535156 -0.484375 16.226562 0 13.625 0 L 2.375 0 Z M 13.34375 -5.359375 C 15.382812 -5.359375 17.019531 -5.9375 18.25 -7.09375 C 19.488281 -8.25 20.109375 -9.847656 20.109375 -11.890625 C 20.109375 -13.929688 19.488281 -15.523438 18.25 -16.671875 C 17.019531 -17.828125 15.382812 -18.40625 13.34375 -18.40625 L 9.109375 -18.40625 L 9.109375 -5.359375 Z M 13.34375 -5.359375 "/></g></g></g><g fill="#000000" fill-opacity="1"><g transform="translate(125.979584, 199.124987)"><g/></g></g><g fill="#000000" fill-opacity="1"><g transform="translate(135.86563, 199.124987)"><g/></g></g><g fill="#000000" fill-opacity="1"><g transform="translate(145.751677, 199.124987)"><g/></g></g><g fill="#000000" fill-opacity="1"><g transform="translate(155.639742, 199.124987)"><g><path d="M 23.84375 0 L 23.78125 -12.609375 L 17.65625 -2.34375 L 14.671875 -2.34375 L 8.59375 -12.265625 L 8.59375 0 L 2.375 0 L 2.375 -23.78125 L 7.921875 -23.78125 L 16.265625 -10.0625 L 24.421875 -23.78125 L 29.953125 -23.78125 L 30.03125 0 Z M 23.84375 0 "/></g></g></g><g fill="#000000" fill-opacity="1"><g transform="translate(188.053802, 199.124987)"><g/></g></g><g fill="#000000" fill-opacity="1"><g transform="translate(197.939849, 199.124987)"><g/></g></g><g fill="#ff914d" fill-opacity="1"><g transform="translate(207.835051, 199.124987)"><g><path d="M 14.234375 0.46875 C 11.742188 0.46875 9.503906 -0.0546875 7.515625 -1.109375 C 5.535156 -2.160156 3.976562 -3.625 2.84375 -5.5 C 1.71875 -7.382812 1.15625 -9.515625 1.15625 -11.890625 C 1.15625 -14.265625 1.71875 -16.390625 2.84375 -18.265625 C 3.976562 -20.148438 5.535156 -21.617188 7.515625 -22.671875 C 9.503906 -23.722656 11.742188 -24.25 14.234375 -24.25 C 16.410156 -24.25 18.367188 -23.863281 20.109375 -23.09375 C 21.847656 -22.320312 23.296875 -21.210938 24.453125 -19.765625 L 20.171875 -15.890625 C 18.640625 -17.753906 16.773438 -18.6875 14.578125 -18.6875 C 13.285156 -18.6875 12.132812 -18.398438 11.125 -17.828125 C 10.113281 -17.265625 9.332031 -16.46875 8.78125 -15.4375 C 8.226562 -14.40625 7.953125 -13.222656 7.953125 -11.890625 C 7.953125 -10.554688 8.226562 -9.375 8.78125 -8.34375 C 9.332031 -7.3125 10.113281 -6.507812 11.125 -5.9375 C 12.132812 -5.375 13.285156 -5.09375 14.578125 -5.09375 C 16.773438 -5.09375 18.640625 -6.019531 20.171875 -7.875 L 24.453125 -4.015625 C 23.296875 -2.554688 21.847656 -1.441406 20.109375 -0.671875 C 18.367188 0.0859375 16.410156 0.46875 14.234375 0.46875 Z M 14.234375 0.46875 "/></g></g></g><g fill="#ff914d" fill-opacity="1"><g transform="translate(232.906891, 199.124987)"><g><path d="M 2.375 -23.78125 L 9.109375 -23.78125 L 9.109375 0 L 2.375 0 Z M 2.375 -23.78125 "/></g></g></g><g fill="#ff914d" fill-opacity="1"><g transform="translate(244.42363, 199.124987)"><g><path d="M 25 -23.78125 L 25 0 L 19.46875 0 L 8.96875 -12.671875 L 8.96875 0 L 2.375 0 L 2.375 -23.78125 L 7.921875 -23.78125 L 18.40625 -11.109375 L 18.40625 -23.78125 Z M 25 -23.78125 "/></g></g></g><g fill="#ff914d" fill-opacity="1"><g transform="translate(271.805609, 199.124987)"><g><path d="M 21.46875 -5.203125 L 21.46875 0 L 2.375 0 L 2.375 -23.78125 L 21.03125 -23.78125 L 21.03125 -18.578125 L 9.03125 -18.578125 L 9.03125 -14.578125 L 19.59375 -14.578125 L 19.59375 -9.546875 L 9.03125 -9.546875 L 9.03125 -5.203125 Z M 21.46875 -5.203125 "/></g></g></g><g fill="#ff914d" fill-opacity="1"><g transform="translate(294.635254, 199.124987)"><g><path d="M 23.84375 0 L 23.78125 -12.609375 L 17.65625 -2.34375 L 14.671875 -2.34375 L 8.59375 -12.265625 L 8.59375 0 L 2.375 0 L 2.375 -23.78125 L 7.921875 -23.78125 L 16.265625 -10.0625 L 24.421875 -23.78125 L 29.953125 -23.78125 L 30.03125 0 Z M 23.84375 0 "/></g></g></g><g fill="#ff914d" fill-opacity="1"><g transform="translate(327.045195, 199.124987)"><g><path d="M 18.3125 -4.625 L 8.25 -4.625 L 6.390625 0 L -0.46875 0 L 10.015625 -23.78125 L 16.640625 -23.78125 L 27.171875 0 L 20.171875 0 Z M 16.34375 -9.578125 L 13.28125 -17.1875 L 10.21875 -9.578125 Z M 16.34375 -9.578125 "/></g></g></g></svg>